<svg width="147" height="24" viewBox="0 0 147 24" fill="none" xmlns="http://www.w3.org/2000/svg">
<path d="M20.25 1.54688L20.1562 3.48438V12.8281C20.1562 15.9115 19.2708 18.4167 17.5 20.3438C15.6875 22.3125 13.2812 23.2969 10.2812 23.2969C7.07292 23.2969 4.57292 22.2917 2.78125 20.2812C1.11458 18.4375 0.28125 16.0729 0.28125 13.1875V0.890625H8.26562V21.9688C9.06771 22.0833 9.94792 22.1406 10.9062 22.1406C11.875 22.1406 12.8542 21.9479 13.8438 21.5625C14.8438 21.1771 15.7188 20.5729 16.4688 19.75C18.0938 17.9792 18.9167 15.3906 18.9375 11.9844V3.51562C18.9375 3.20312 18.9115 2.83333 18.8594 2.40625C18.8177 1.97917 18.7969 1.6875 18.7969 1.53125C18.7969 0.989583 19.0521 0.71875 19.5625 0.71875C20.0208 0.71875 20.25 0.994792 20.25 1.54688ZM24.6556 20.9062C24.6556 20.75 24.7077 20.6094 24.8119 20.4844C24.9265 20.349 25.0723 20.2812 25.2494 20.2812C25.4265 20.2812 25.5723 20.3333 25.6869 20.4375C25.6869 20.4375 25.8171 20.5573 26.0775 20.7969C27.1608 21.7448 28.6765 22.2188 30.6244 22.2188C31.9369 22.2188 32.7806 21.9479 33.1556 21.4062C33.2598 21.2604 33.3119 21.1146 33.3119 20.9688C33.3119 20.8125 33.2806 20.6667 33.2181 20.5312C33.166 20.3854 33.0462 20.2135 32.8587 20.0156C32.6712 19.8073 32.4056 19.5625 32.0619 19.2812L30.6869 18.1719C28.416 16.401 26.8587 14.9635 26.015 13.8594C25.2442 12.849 24.8587 11.8177 24.8587 10.7656C24.8587 9.44271 25.4681 8.33333 26.6869 7.4375C27.9473 6.5 29.5775 6.03125 31.5775 6.03125C32.9837 6.03125 34.0931 6.19271 34.9056 6.51562C35.7181 6.83854 36.291 7.13542 36.6244 7.40625C36.9577 7.66667 37.1244 7.90625 37.1244 8.125C37.1244 8.57292 36.9473 8.79688 36.5931 8.79688C36.4265 8.79688 36.2702 8.73958 36.1244 8.625C35.989 8.5 35.7129 8.29688 35.2962 8.01562C34.8796 7.72396 34.3275 7.49479 33.64 7.32812C32.9525 7.16146 32.3119 7.07812 31.7181 7.07812C31.1244 7.07812 30.7025 7.17188 30.4525 7.35938C30.2129 7.54688 30.0931 7.73438 30.0931 7.92188C30.0931 8.09896 30.1296 8.27083 30.2025 8.4375C30.2754 8.59375 30.4108 8.78125 30.6087 9C31.0671 9.54167 31.8015 10.1823 32.8119 10.9219C33.8223 11.6615 34.6765 12.3385 35.3744 12.9531C36.0723 13.5677 36.6192 14.1354 37.015 14.6562C37.7337 15.5938 38.0931 16.5417 38.0931 17.5C38.0931 18.4583 37.916 19.2812 37.5619 19.9688C37.2077 20.6458 36.7025 21.2292 36.0462 21.7188C34.6608 22.7708 32.8119 23.2969 30.4994 23.2969C28.6452 23.2969 27.0983 22.9427 25.8587 22.2344C25.0567 21.7865 24.6556 21.3438 24.6556 20.9062ZM47.9831 23.2969C44.3269 23.2969 42.4987 21.5104 42.4987 17.9375V6.3125H49.1862V21.6094C49.2904 21.6615 49.4206 21.6875 49.5769 21.6875H50.0925C50.9258 21.6875 51.9154 21.125 53.0612 20C53.405 19.6562 53.7279 19.2812 54.03 18.875V6.3125H60.7487V23H54.03V20.5938C52.3321 22.3958 50.3165 23.2969 47.9831 23.2969ZM72.7481 22C73.2377 22.0938 73.7273 22.1406 74.2169 22.1406C74.7169 22.1406 75.196 22.1042 75.6544 22.0312C76.1231 21.9479 76.5658 21.8333 76.9825 21.6875C77.8679 21.375 78.5815 20.9792 79.1231 20.5C79.5085 20.1667 79.7898 20 79.9669 20C80.3627 20 80.5606 20.1771 80.5606 20.5312C80.5606 20.8854 80.2377 21.3073 79.5919 21.7969C78.0919 22.7969 76.2898 23.2969 74.1856 23.2969C71.446 23.2969 69.2325 22.474 67.545 20.8281C65.8887 19.2031 65.0606 17.0938 65.0606 14.5C65.0606 12.0417 65.9408 10.0104 67.7012 8.40625C69.4512 6.82292 71.6492 6.03125 74.295 6.03125C75.8054 6.03125 77.2585 6.34375 78.6544 6.96875C79.7169 7.42708 80.2481 7.90104 80.2481 8.39062C80.2481 8.59896 80.1856 8.76042 80.0606 8.875C79.946 8.97917 79.8158 9.03125 79.67 9.03125C79.4512 9.03125 79.17 8.91146 78.8262 8.67188C78.1492 8.02604 77.144 7.57292 75.8106 7.3125C75.3315 7.21875 74.8054 7.17188 74.2325 7.17188C73.6596 7.17188 73.1648 7.21354 72.7481 7.29688V22ZM83.3256 14.5625C83.3256 13.3125 83.5496 12.1771 83.9975 11.1562C84.4558 10.125 85.0808 9.22917 85.8725 8.46875C87.5808 6.84375 89.7267 6.03125 92.31 6.03125C94.9454 6.03125 97.0912 6.875 98.7475 8.5625C100.331 10.1562 101.122 12.1719 101.122 14.6094C101.122 17.0573 100.31 19.1042 98.685 20.75C97.0079 22.4479 94.8621 23.2969 92.2475 23.2969C89.6954 23.2969 87.5808 22.4896 85.9037 20.875C84.185 19.2083 83.3256 17.1042 83.3256 14.5625ZM91.81 22.125C91.8933 22.1354 91.9767 22.1406 92.06 22.1406H92.2787C94.3829 22.1406 96.1485 21.4896 97.5756 20.1875C99.0965 18.7812 99.8569 16.9375 99.8569 14.6562C99.8569 12.4271 99.1433 10.6198 97.7162 9.23438C96.31 7.85938 94.4923 7.17188 92.2631 7.17188H92.0287C91.9558 7.17188 91.8829 7.17708 91.81 7.1875V22.125ZM117.606 22.1406C116.304 22.9115 114.924 23.2969 113.466 23.2969C112.018 23.2969 110.742 23.0833 109.637 22.6562C108.544 22.2188 107.606 21.6146 106.825 20.8438C105.2 19.2292 104.387 17.1302 104.387 14.5469C104.387 12.151 105.19 10.1562 106.794 8.5625C108.502 6.875 110.731 6.03125 113.481 6.03125C114.94 6.03125 116.315 6.34896 117.606 6.98438V0.890625H124.044V23H117.606V22.1406ZM113.169 7.17188C112.846 7.17188 112.539 7.19271 112.247 7.23438V22.0469C112.622 22.1094 113.028 22.1406 113.466 22.1406C114.914 22.1406 116.294 21.6823 117.606 20.7656V8.375C116.2 7.57292 114.721 7.17188 113.169 7.17188ZM144.293 19.2031C144.699 19.2031 144.902 19.3906 144.902 19.7656C144.902 20.0469 144.72 20.3802 144.356 20.7656C142.71 22.4531 140.455 23.2969 137.59 23.2969C135.017 23.2969 132.85 22.5208 131.09 20.9688C129.267 19.3542 128.356 17.3125 128.356 14.8438C128.356 12.3229 129.179 10.25 130.824 8.625C132.564 6.89583 134.876 6.03125 137.762 6.03125C140.074 6.03125 142.017 6.73438 143.59 8.14062C145.288 9.65104 146.137 11.6354 146.137 14.0938C146.137 14.4479 146.126 14.8229 146.106 15.2188H135.793V21.9219C136.501 22.0677 137.298 22.1406 138.184 22.1406C140.059 22.1406 141.658 21.5208 142.981 20.2812C143.251 20.0104 143.444 19.7969 143.559 19.6406C143.798 19.349 144.043 19.2031 144.293 19.2031ZM140.121 7.46875C139.444 7.27083 138.679 7.17188 137.824 7.17188C136.97 7.17188 136.293 7.22917 135.793 7.34375V14.0781H140.121V7.46875Z" fill="white"/>
</svg>
